<svg width="33" height="22" viewBox="0 0 33 22" fill="none" xmlns="http://www.w3.org/2000/svg">
<path d="M3.30417 11.6762L11.1104 19.4804C11.3049 19.6748 11.409 19.9137 11.4229 20.1971C11.4368 20.4804 11.3326 20.7332 11.1104 20.9554C10.8882 21.1776 10.6424 21.2887 10.3729 21.2887C10.1021 21.2887 9.85625 21.1776 9.63542 20.9554L0.491667 11.8116C0.311111 11.6311 0.184028 11.4457 0.110417 11.2554C0.0368055 11.0665 0 10.8596 0 10.6346C0 10.4096 0.0368055 10.2026 0.110417 10.0137C0.184028 9.82345 0.311111 9.63803 0.491667 9.45748L9.63542 0.313726C9.82986 0.119281 10.0687 0.0151144 10.3521 0.00122549C10.6354 -0.0126634 10.8882 0.0915035 11.1104 0.313726C11.3326 0.535948 11.4437 0.781781 11.4437 1.05123C11.4437 1.32067 11.3326 1.5665 11.1104 1.78873L3.30417 9.59289H29.2833C29.6569 9.59289 29.9639 9.47275 30.2042 9.23248C30.4444 8.9922 30.5646 8.68525 30.5646 8.31164V2.30123C30.5646 2.00539 30.6639 1.75748 30.8625 1.55748C31.0625 1.35886 31.3104 1.25956 31.6062 1.25956C31.9021 1.25956 32.15 1.35886 32.35 1.55748C32.5486 1.75748 32.6479 2.00539 32.6479 2.30123V8.31164C32.6479 9.2422 32.3201 10.0359 31.6646 10.6929C31.009 11.3484 30.2153 11.6762 29.2833 11.6762H3.30417Z" fill="black"/>
</svg>
